<?xml version="1.0" encoding="utf-8"?>
<!-- Generator: Adobe Illustrator 23.0.3, SVG Export Plug-In . SVG Version: 6.00 Build 0)  -->
<svg version="1.1" id="Слой_1" xmlns="http://www.w3.org/2000/svg" xmlns:xlink="http://www.w3.org/1999/xlink" x="0px" y="0px"
	 viewBox="0 0 399.27 141.22" style="enable-background:new 0 0 399.27 141.22;" xml:space="preserve">
<path d="M51.56,53.12H40.08c-2.32,0-4.24,1.7-4.24,4.35v26.46c0,2.66,1.92,4.18,4.24,4.18h11.48c10.23,0,18.09-7.12,18.09-17.58
	C69.65,60.13,61.79,53.12,51.56,53.12z M51.56,79.97h-7.24V61.26h7.24c5.82,0,9.72,3.45,9.72,9.27
	C61.28,76.35,57.38,79.97,51.56,79.97z"/>
<path d="M92.09,52.84c-10.12,0-17.92,7.63-17.92,17.81c0,10.29,7.8,17.81,17.92,17.81c10.12,0,17.92-7.8,17.92-17.92
	C110.01,60.36,102.21,52.84,92.09,52.84z M92.09,80.48c-5.54,0-9.55-4.18-9.55-9.89c0-5.6,4.01-9.78,9.55-9.78
	c5.6,0,9.55,4.18,9.55,9.78C101.65,76.3,97.86,80.48,92.09,80.48z"/>
<path d="M131.38,53.12h-11.48c-2.32,0-4.24,1.7-4.24,4.35v26.46c0,2.66,1.92,4.18,4.24,4.18h11.48c10.23,0,18.09-7.12,18.09-17.58
	C149.47,60.13,141.61,53.12,131.38,53.12z M131.38,79.97h-7.24V61.26h7.24c5.82,0,9.72,3.45,9.72,9.27
	C141.11,76.35,137.21,79.97,131.38,79.97z"/>
<path d="M171.92,52.84c-10.12,0-17.92,7.63-17.92,17.81c0,10.29,7.8,17.81,17.92,17.81c10.12,0,17.92-7.8,17.92-17.92
	C189.84,60.36,182.04,52.84,171.92,52.84z M171.92,80.48c-5.54,0-9.55-4.18-9.55-9.89c0-5.6,4.01-9.78,9.55-9.78
	c5.6,0,9.55,4.18,9.55,9.78C181.47,76.3,177.68,80.48,171.92,80.48z"/>
<path d="M224.38,53.12h-14.13c-2.32,0-4.18,1.53-4.18,4.18v26.97c0,2.66,1.92,4.18,4.3,4.18c2.32,0,4.18-1.53,4.18-4.18v-6.33h9.84
	c7.63,0,12.44-5.37,12.44-12.44C236.82,58.38,232.01,53.12,224.38,53.12z M224.38,69.97h-9.84v-8.88h9.84
	c2.77,0,4.24,2.04,4.24,4.47C228.62,67.99,227.15,69.97,224.38,69.97z"/>
<path d="M247.67,52.84c-2.37,0-4.35,1.58-4.35,4.24v27.14c0,2.66,1.98,4.24,4.35,4.24c2.37,0,4.35-1.58,4.35-4.24V57.08
	C252.02,54.42,250.05,52.84,247.67,52.84z"/>
<path d="M287.47,80.08h-17.58l17.41-15.66c2.49-2.2,3.51-4.01,3.51-6.39V57.7c0-2.88-1.75-4.58-4.92-4.58h-22.22
	c-2.66,0-4.18,1.87-4.18,4.13c0,2.32,1.53,3.9,4.18,3.9h16.28L263.16,76.3c-3.28,2.94-4.07,4.69-4.07,6.84v0.4
	c0,2.83,1.81,4.58,4.86,4.58h23.52c2.66,0,4.18-1.81,4.18-4.07C291.65,81.72,290.13,80.08,287.47,80.08z"/>
<path d="M324.27,80.08h-17.58l17.41-15.66c2.49-2.2,3.5-4.01,3.5-6.39V57.7c0-2.88-1.75-4.58-4.92-4.58h-22.22
	c-2.66,0-4.18,1.87-4.18,4.13c0,2.32,1.53,3.9,4.18,3.9h16.28L299.96,76.3c-3.28,2.94-4.07,4.69-4.07,6.84v0.4
	c0,2.83,1.81,4.58,4.86,4.58h23.52c2.66,0,4.18-1.81,4.18-4.07C328.46,81.72,326.93,80.08,324.27,80.08z"/>
<path d="M366.78,82.18l-11.53-25.1c-1.3-2.77-3.11-3.96-5.71-3.96h-0.45c-2.71,0-4.52,1.19-5.82,3.96l-11.53,25.1
	c-1.13,2.49-0.34,4.69,1.92,5.54c2.03,0.79,4.07,0.34,5.2-2.03l2.6-5.48c2.32,0.79,5.2,1.19,7.91,1.19c2.88,0,5.43-0.4,7.58-1.19
	l2.49,5.43c1.07,2.37,3.28,2.83,5.26,2.09C366.95,86.87,367.86,84.55,366.78,82.18z M349.37,73.87c-1.75,0-3.62-0.23-5.03-0.62
	l4.92-10.97l4.92,10.97C352.82,73.64,351.13,73.87,349.37,73.87z"/>
</svg>
