<?xml version="1.0" encoding="utf-8"?>
<!-- Generator: Adobe Illustrator 25.0.1, SVG Export Plug-In . SVG Version: 6.00 Build 0)  -->
<svg version="1.1" id="Слой_1" xmlns="http://www.w3.org/2000/svg" xmlns:xlink="http://www.w3.org/1999/xlink" x="0px" y="0px"
	 viewBox="0 0 399.2738342 141.223587" style="enable-background:new 0 0 399.2738342 141.223587;" xml:space="preserve">
<style type="text/css">
	.st0{fill:#FFFFFF;}
</style>
<path class="st0" d="M51.5570679,53.1188049h-11.475708c-2.3179932,0-4.2402344,1.6956787-4.2402344,4.3526001v26.4572754
	c0,2.6567993,1.9222412,4.1831055,4.2402344,4.1831055h11.475708c10.2320557,0,18.090332-7.1231689,18.090332-17.5812378
	C69.6473999,60.1283875,61.7891235,53.1188049,51.5570679,53.1188049z M51.5570679,79.9715271h-7.2362061V61.259613h7.2362061
	c5.822876,0,9.7235107,3.447998,9.7235107,9.2709351C61.2805786,76.3534241,57.3799438,79.9715271,51.5570679,79.9715271z"/>
<path class="st0" d="M92.0916748,52.8362732c-10.1190796,0-17.9202881,7.6317139-17.9202881,17.807251
	c0,10.2885742,7.8012085,17.807312,17.9202881,17.807312c10.1196289,0,17.9208374-7.8012695,17.9208374-17.9202881
	C110.0125122,60.355011,102.2113037,52.8362732,92.0916748,52.8362732z M92.0916748,80.480072
	c-5.5397949,0-9.5534668-4.1837158-9.5534668-9.8930054c0-5.5969238,4.0136719-9.7800293,9.5534668-9.7800293
	c5.5968628,0,9.5540161,4.1831055,9.5540161,9.7800293C101.6456909,76.2963562,97.8580322,80.480072,92.0916748,80.480072z"/>
<path class="st0" d="M131.3824463,53.1188049h-11.475708c-2.3179321,0-4.2402344,1.6956787-4.2402344,4.3526001v26.4572754
	c0,2.6567993,1.9223022,4.1831055,4.2402344,4.1831055h11.475708c10.2320557,0,18.0903931-7.1231689,18.0903931-17.5812378
	C149.4728394,60.1283875,141.614502,53.1188049,131.3824463,53.1188049z M131.3824463,79.9715271h-7.2362061V61.259613h7.2362061
	c5.822937,0,9.7235718,3.447998,9.7235718,9.2709351C141.1060181,76.3534241,137.2053833,79.9715271,131.3824463,79.9715271z"/>
<path class="st0" d="M171.9170532,52.8362732c-10.1190186,0-17.9202881,7.6317139-17.9202881,17.807251
	c0,10.2885742,7.8012695,17.807312,17.9202881,17.807312c10.1196899,0,17.9208984-7.8012695,17.9208984-17.9202881
	C189.8379517,60.355011,182.0367432,52.8362732,171.9170532,52.8362732z M171.9170532,80.480072
	c-5.5397949,0-9.5540161-4.1837158-9.5540161-9.8930054c0-5.5969238,4.0142212-9.7800293,9.5540161-9.7800293
	c5.5969238,0,9.5540161,4.1831055,9.5540161,9.7800293C181.4710693,76.2963562,177.6834717,80.480072,171.9170532,80.480072z"/>
<path class="st0" d="M224.3792725,53.1190491h-14.1332397c-2.3173218,0-4.1825562,1.526123-4.1825562,4.1829834v26.9657593
	c0,2.6569824,1.9216919,4.1831665,4.2961426,4.1831665c2.3178101,0,4.1831665-1.5261841,4.1831665-4.1831665v-6.3314209h9.8364868
	c7.6316528,0,12.4370117-5.3709106,12.4370117-12.4370117C236.8162842,58.3763123,232.0109253,53.1190491,224.3792725,53.1190491z
	 M224.3792725,69.9650574h-9.8364868v-8.8754272h9.8364868c2.7698364,0,4.2396851,2.0354614,4.2396851,4.4662476
	C228.6189575,67.9862366,227.1491089,69.9650574,224.3792725,69.9650574z"/>
<path class="st0" d="M247.671524,52.8362694c-2.3743286,0-4.3526459,1.5826797-4.3526459,4.2395134v27.1352768
	c0,2.6569519,1.9783173,4.2396317,4.3526459,4.2396317c2.3743134,0,4.3532257-1.5826797,4.3532257-4.2396317V57.0757828
	C252.0247498,54.4189491,250.0458374,52.8362694,247.671524,52.8362694z"/>
<path class="st0" d="M287.4699097,80.0840759h-17.5812683l17.4116516-15.6589661
	c2.4874268-2.2048111,3.5050964-4.013504,3.5050964-6.3879395v-0.3396149c0-2.8828468-1.7528076-4.5786514-4.9188843-4.5786514
	H263.670105c-2.6568298,0-4.1837463,1.8653145-4.1837463,4.1266251c0,2.3178177,1.5269165,3.9006157,4.1837463,3.9006157h16.2810974
	L263.1609802,76.296463c-3.2785034,2.9400711-4.0701294,4.6922531-4.0701294,6.840683v0.3955231
	c0,2.8263397,1.8094177,4.5792465,4.8617554,4.5792465h23.5173035c2.6568298,0,4.1830139-1.8094101,4.1830139-4.0701218
	C291.6529236,81.723259,290.1267395,80.0840759,287.4699097,80.0840759z"/>
<path class="st0" d="M324.2724609,80.0840759h-17.5812683l17.4117432-15.6589661
	c2.4873352-2.2048111,3.5049744-4.013504,3.5049744-6.3879395v-0.3396149c0-2.8828468-1.7527771-4.5786514-4.9188538-4.5786514
	h-22.2163086c-2.6569519,0-4.1832275,1.8653145-4.1832275,4.1266251c0,2.3178177,1.5262756,3.9006157,4.1832275,3.9006157
	h16.2809753L299.9635315,76.296463c-3.2783813,2.9400711-4.0700073,4.6922531-4.0700073,6.840683v0.3955231
	c0,2.8263397,1.8092651,4.5792465,4.8617554,4.5792465h23.5171814c2.6568298,0,4.183136-1.8094101,4.183136-4.0701218
	C328.4555969,81.723259,326.9292908,80.0840759,324.2724609,80.0840759z"/>
<path class="st0" d="M366.7849121,82.1761169l-11.5322266-25.1004639c-1.3007812-2.7699585-3.1095581-3.9570923-5.7098999-3.9570923
	h-0.4526367c-2.7134399,0-4.5227051,1.1871338-5.8223877,3.9570923l-11.5322266,25.1004639
	c-1.1307983,2.4874268-0.3396606,4.6916504,1.9216919,5.539917c2.03479,0.791626,4.0701294,0.3390503,5.2007446-2.0348511
	l2.6004639-5.4838867c2.3178101,0.791687,5.2008057,1.1871948,7.9147339,1.1871948
	c2.8829346,0,5.4268799-0.3955078,7.5751953-1.1871948l2.4874878,5.4268188
	c1.0740967,2.3744507,3.2784424,2.8270874,5.2572632,2.0919189
	C366.9544067,86.8677673,367.8585815,84.5505676,366.7849121,82.1761169z M349.3731689,73.8658752
	c-1.7528076,0-3.617981-0.2260132-5.0318604-0.6222534l4.9189453-10.9665527l4.9176636,10.9665527
	C352.821167,73.6398621,351.1254883,73.8658752,349.3731689,73.8658752z"/>
</svg>
