<?xml version="1.0" standalone="no"?>
<!DOCTYPE svg PUBLIC "-//W3C//DTD SVG 20010904//EN"
 "http://www.w3.org/TR/2001/REC-SVG-20010904/DTD/svg10.dtd">
<svg version="1.0" xmlns="http://www.w3.org/2000/svg"
 width="256.000000pt" height="51.000000pt" viewBox="0 0 256.000000 51.000000"
 preserveAspectRatio="xMidYMid meet">

<g transform="translate(0.000000,51.000000) scale(0.100000,-0.100000)"
fill="#000000" stroke="none">
<path d="M103 404 c-29 -27 -40 -73 -21 -85 7 -4 12 -29 12 -56 l1 -48 -37 1
c-44 1 -53 -22 -14 -32 61 -15 87 19 79 104 -4 39 -10 52 -22 52 -13 0 -13 2
-2 9 7 5 10 14 7 20 -4 6 -1 11 8 11 8 0 17 6 19 13 3 6 3 -8 1 -33 -4 -28 1
-62 10 -89 21 -56 20 -126 -1 -161 -9 -15 -33 -39 -54 -51 -20 -13 -35 -27
-32 -31 8 -15 36 -8 69 17 27 21 39 24 77 19 70 -10 131 32 158 108 16 46 9
54 -30 34 -16 -9 -54 -16 -84 -16 -53 0 -55 1 -61 31 -11 54 6 61 69 29 22
-11 41 -20 43 -20 2 0 2 13 0 30 -5 35 14 41 43 14 30 -27 53 -10 46 33 -9 53
-29 68 -87 66 -43 -2 -54 2 -82 27 -41 37 -78 39 -115 4z m120 -34 c6 -11 20
-20 29 -20 22 0 23 -13 4 -29 -17 -15 -66 -4 -83 17 -7 9 -13 11 -13 4 0 -6
10 -18 22 -26 12 -9 18 -16 12 -16 -17 0 -54 31 -54 46 0 8 9 23 19 33 11 11
16 23 13 27 -4 3 3 1 16 -5 12 -7 28 -21 35 -31z m125 -32 c21 -21 13 -27 -25
-21 -45 7 -47 8 -38 22 8 15 48 14 63 -1z m-15 -167 c-12 -10 -19 -21 -16 -25
3 -3 -2 -8 -11 -12 -9 -3 -14 -10 -11 -15 8 -12 -29 -29 -62 -29 -43 0 -54 12
-47 47 6 29 9 31 38 26 17 -2 49 2 71 10 55 20 64 20 38 -2z"/>
<path d="M190 370 c0 -5 5 -10 10 -10 6 0 10 5 10 10 0 6 -4 10 -10 10 -5 0
-10 -4 -10 -10z"/>
<path d="M636 415 c-3 -9 -6 -34 -6 -54 0 -24 -8 -49 -21 -65 -22 -28 -23 -77
-1 -84 7 -2 16 5 19 17 5 18 13 21 65 21 49 0 63 -4 77 -22 10 -12 23 -18 29
-14 19 11 14 53 -7 73 -15 14 -21 35 -23 78 l-3 60 -61 3 c-49 2 -63 0 -68
-13z m94 -75 l0 -50 -35 0 c-32 0 -35 2 -30 25 3 14 7 36 10 50 4 19 12 25 30
25 23 0 25 -3 25 -50z"/>
<path d="M865 418 c-32 -17 -45 -39 -45 -79 0 -29 7 -43 31 -63 42 -36 82 -34
121 4 26 27 30 36 25 68 -11 65 -77 101 -132 70z m79 -44 c21 -20 20 -37 -2
-64 -38 -47 -102 5 -72 59 13 25 52 28 74 5z"/>
<path d="M1057 424 c-4 -4 -7 -22 -7 -40 0 -39 -14 -80 -35 -100 -19 -19 -19
-48 0 -64 16 -14 35 -6 35 16 0 11 15 14 64 14 56 0 64 -2 69 -21 9 -33 32
-17 35 24 2 28 -1 37 -12 37 -12 0 -16 15 -18 68 l-3 67 -60 3 c-34 2 -64 0
-68 -4z m91 -81 c-3 -46 -4 -48 -37 -51 -33 -3 -34 -3 -27 29 3 17 6 40 6 50
0 14 7 19 31 19 30 0 30 -1 27 -47z"/>
<path d="M1258 400 c-26 -27 -30 -36 -25 -68 18 -113 176 -105 177 9 0 82 -92
118 -152 59z m105 -31 c16 -26 0 -68 -29 -75 -27 -7 -64 18 -64 44 0 44 70 68
93 31z"/>
<path d="M1494 417 c-3 -8 -4 -47 -2 -88 2 -60 6 -74 20 -77 14 -3 18 7 20 65
l3 68 37 3 37 3 3 -68 c3 -60 5 -68 23 -68 18 0 20 8 23 65 5 109 4 110 -84
110 -53 0 -76 -4 -80 -13z"/>
<path d="M1707 424 c-4 -4 -7 -42 -7 -85 0 -111 21 -113 102 -9 l27 35 1 -52
c0 -47 3 -53 20 -53 20 0 21 5 18 82 -4 107 -19 113 -80 32 l-43 -58 -5 54
c-5 50 -17 70 -33 54z"/>
<path d="M1922 343 l3 -88 71 -3 c63 -2 73 -5 77 -23 3 -12 12 -19 19 -17 19
7 23 60 4 73 -10 8 -16 32 -18 76 -3 56 -5 64 -23 64 -18 0 -20 -8 -23 -67
l-3 -68 -34 0 -34 0 -3 67 c-2 56 -6 68 -21 71 -16 3 -18 -4 -15 -85z"/>
<path d="M2137 423 c-4 -3 -7 -41 -7 -84 0 -88 1 -89 87 -89 44 0 58 -4 72
-22 10 -12 23 -18 29 -14 23 14 11 76 -14 76 -11 0 -14 17 -14 71 0 62 -2 70
-17 67 -15 -3 -19 -16 -21 -71 l-3 -67 -34 0 -35 0 0 54 c0 30 -3 61 -6 70 -6
16 -26 21 -37 9z"/>
<path d="M2375 360 c-19 -38 -35 -76 -35 -84 0 -26 23 -31 38 -8 21 31 84 31
105 0 12 -19 18 -21 28 -11 10 10 7 25 -16 75 -33 72 -52 98 -71 98 -8 0 -30
-31 -49 -70z m75 -21 c0 -4 -5 -11 -11 -15 -17 -10 -32 12 -24 37 7 22 8 22
21 4 8 -10 14 -22 14 -26z"/>
<path d="M20 140 c0 -5 6 -10 14 -10 8 0 18 5 21 10 3 6 -3 10 -14 10 -12 0
-21 -4 -21 -10z"/>
<path d="M605 100 c-7 -23 2 -60 16 -60 5 0 4 9 -3 20 -10 16 -10 24 0 40 7
11 8 20 3 20 -5 0 -13 -9 -16 -20z"/>
<path d="M1522 78 c1 -38 2 -39 5 -10 3 22 8 30 16 25 7 -4 6 0 -2 10 -19 24
-21 22 -19 -25z"/>
<path d="M1601 103 c-1 -14 5 -23 13 -23 21 0 30 20 17 33 -9 9 -11 8 -6 -5 4
-10 3 -18 -3 -18 -6 0 -13 8 -15 18 -4 13 -5 11 -6 -5z"/>
<path d="M1708 80 c2 -22 6 -40 8 -40 2 0 4 18 4 40 0 22 -3 40 -8 40 -4 0 -6
-18 -4 -40z"/>
<path d="M1883 80 c-1 -25 1 -38 4 -29 2 10 13 19 24 22 19 5 28 47 10 47 -5
0 -7 -9 -4 -20 4 -14 0 -20 -10 -20 -9 0 -18 10 -20 23 -2 12 -4 2 -4 -23z"/>
<path d="M684 86 c-10 -25 3 -46 28 -45 l23 2 -22 4 c-15 3 -23 12 -23 24 0
20 25 27 33 9 3 -6 4 -5 3 2 -4 19 -35 22 -42 4z"/>
<path d="M746 92 c7 -4 14 -18 17 -32 l4 -25 2 27 c0 14 7 29 14 31 6 3 -1 6
-18 6 -16 0 -25 -3 -19 -7z"/>
<path d="M800 73 c0 -29 3 -33 25 -33 17 0 25 5 24 18 0 10 -3 12 -6 5 -2 -7
-11 -13 -19 -13 -9 0 -12 4 -9 10 3 5 1 18 -4 27 -9 15 -10 13 -11 -14z"/>
<path d="M901 68 c2 -30 2 -30 6 -6 3 18 12 28 26 31 18 4 17 5 -5 6 -25 1
-28 -2 -27 -31z"/>
<path d="M997 74 c-11 -14 -17 -28 -14 -31 3 -2 11 6 18 19 l13 23 7 -25 c6
-23 7 -23 8 8 1 38 -8 40 -32 6z"/>
<path d="M1051 73 c-1 -29 2 -33 24 -33 14 0 25 -5 25 -12 0 -6 2 -9 4 -7 2 2
0 22 -4 44 -6 31 -8 34 -9 13 -1 -17 -7 -28 -15 -28 -8 0 -17 12 -19 28 -4 25
-4 25 -6 -5z"/>
<path d="M1121 74 c-1 -28 3 -32 28 -36 28 -4 30 -3 24 26 -8 41 -13 46 -13
13 0 -36 -27 -35 -33 1 -4 26 -4 26 -6 -4z"/>
<path d="M1204 86 c-10 -25 3 -46 28 -45 l23 2 -22 4 c-15 3 -23 12 -23 24 0
20 25 27 33 9 3 -6 4 -5 3 2 -4 19 -35 22 -42 4z"/>
<path d="M1271 53 c1 -26 3 -41 6 -32 2 10 13 19 24 22 29 8 22 51 -8 55 -21
3 -23 0 -22 -45z m39 17 c0 -11 -7 -20 -15 -20 -8 0 -15 9 -15 20 0 11 7 20
15 20 8 0 15 -9 15 -20z"/>
<path d="M1341 71 c-1 -33 0 -34 18 -17 18 17 19 17 24 -1 3 -10 5 -2 6 17 l1
35 -19 -24 -19 -25 -5 25 c-3 19 -5 17 -6 -10z"/>
<path d="M1411 73 c-1 -18 2 -33 5 -33 9 0 43 43 44 55 0 5 -8 -2 -17 -15
l-17 -24 -7 24 c-6 23 -7 22 -8 -7z"/>
<path d="M1780 70 c0 -22 5 -30 18 -30 26 0 30 6 24 35 -7 38 -42 34 -42 -5z
m33 0 c3 -13 0 -20 -9 -20 -8 0 -14 9 -14 20 0 11 4 20 9 20 5 0 11 -9 14 -20z"/>
<path d="M1954 86 c-9 -24 4 -48 23 -44 12 2 18 12 18 28 0 29 -32 41 -41 16z
m36 -16 c0 -11 -7 -20 -15 -20 -8 0 -15 9 -15 20 0 11 7 20 15 20 8 0 15 -9
15 -20z"/>
<path d="M2024 85 c-9 -23 3 -45 23 -44 17 1 17 2 1 6 -10 2 -18 13 -18 23 0
10 8 21 18 23 16 4 16 5 -1 6 -10 0 -20 -6 -23 -14z"/>
<path d="M2084 85 c-9 -23 3 -45 23 -44 17 1 17 2 1 6 -10 2 -18 13 -18 23 0
10 8 21 18 23 16 4 16 5 -1 6 -10 0 -20 -6 -23 -14z"/>
<path d="M2142 70 l-1 -35 19 23 19 22 4 -22 c3 -15 5 -11 5 12 l1 35 -19 -23
-19 -22 -4 22 c-3 15 -5 11 -5 -12z"/>
<path d="M2211 71 c-1 -33 0 -34 18 -17 18 17 19 17 24 -1 3 -10 5 -2 6 17 l1
35 -19 -24 -19 -25 -5 25 c-3 19 -5 17 -6 -10z"/>
<path d="M1561 63 c7 -10 15 -20 16 -22 2 -2 3 3 3 11 0 9 -7 19 -16 22 -15 6
-15 4 -3 -11z"/>
<path d="M1608 63 c6 -2 18 -2 25 0 6 3 1 5 -13 5 -14 0 -19 -2 -12 -5z"/>
</g>
</svg>
