<?xml version="1.0" encoding="utf-8"?>
<!-- Generator: Adobe Illustrator 25.0.1, SVG Export Plug-In . SVG Version: 6.00 Build 0)  -->
<svg version="1.1" id="Layer_1" xmlns="http://www.w3.org/2000/svg" xmlns:xlink="http://www.w3.org/1999/xlink" x="0px" y="0px"
	 viewBox="0 0 441.591 141.088" style="enable-background:new 0 0 441.591 141.088;" xml:space="preserve">
<style type="text/css">
	.st0{fill:#FFFFFF;}
</style>
<g>
	<g>
		<g>
			<path class="st0" d="M410.359,82.183l-11.447-24.966c-1.308-2.726-3.053-3.925-5.669-3.925h-0.436
				c-2.726,0-4.47,1.199-5.778,3.925l-11.447,24.966c-1.09,2.507-0.327,4.688,1.962,5.56c2.071,0.763,4.034,0.327,5.233-2.071
				l2.617-5.451c2.289,0.763,5.233,1.199,7.85,1.199c2.835,0,5.451-0.436,7.523-1.199l2.507,5.451
				c1.09,2.398,3.271,2.835,5.233,2.071C410.577,86.871,411.45,84.582,410.359,82.183z M393.025,73.897
				c-1.744,0-3.598-0.218-5.015-0.654l4.906-10.902l4.906,10.902C396.405,73.679,394.769,73.897,393.025,73.897z"/>
			<path class="st0" d="M369.149,79.894h-2.18V56.999c0-2.617-1.962-4.143-4.252-4.143c-2.289,0-4.143,1.526-4.143,4.143v22.895
				h-14.609V56.999c0-2.617-1.853-4.143-4.252-4.143s-4.252,1.526-4.252,4.143v26.928c0,2.289,1.526,4.143,4.143,4.143h25.402v3.707
				c0,2.617,1.853,4.143,4.143,4.143c2.399,0,4.143-1.526,4.143-4.143v-7.741C373.292,81.311,371.657,79.894,369.149,79.894"/>
			<path class="st0" d="M326.848,79.894h-2.18V56.999c0-2.617-1.962-4.143-4.252-4.143s-4.143,1.526-4.143,4.143v22.895h-14.609
				V56.999c0-2.617-1.853-4.143-4.252-4.143s-4.252,1.526-4.252,4.143v26.928c0,2.289,1.526,4.143,4.143,4.143h25.402v3.707
				c0,2.617,1.853,4.143,4.143,4.143c2.398,0,4.143-1.526,4.143-4.143v-7.741C330.991,81.311,329.356,79.894,326.848,79.894"/>
			<path class="st0" d="M279.86,53.183h-0.327c-2.508,0-4.143,1.199-5.887,3.707l-13.737,19.515V56.999
				c0-2.617-1.744-4.143-4.034-4.143c-2.398,0-4.143,1.526-4.143,4.143v26.274c0,2.835,1.853,4.688,4.688,4.688h0.436
				c2.617,0,4.361-1.308,5.996-3.707l13.737-19.515v19.515c0,2.617,1.744,4.143,4.034,4.143c2.289,0,4.034-1.526,4.034-4.143V57.871
				C284.657,55.037,282.912,53.183,279.86,53.183"/>
			<path class="st0" d="M238.868,53.183h-23.549c-2.726,0-4.143,1.853-4.143,4.143v26.928c0,2.617,1.962,4.143,4.252,4.143
				c2.289,0,4.143-1.526,4.143-4.143V61.36h15.045v22.895c0,2.617,1.853,4.143,4.252,4.143c2.289,0,4.252-1.526,4.252-4.252V57.217
				C243.119,55.037,241.593,53.183,238.868,53.183"/>
		</g>
		<g>
			<path class="st0" d="M177.924,52.965c-10.139,0-17.88,7.632-17.88,17.771c0,10.248,7.741,17.771,17.88,17.771
				c10.03,0,17.88-7.741,17.88-17.88C195.695,60.379,187.954,52.965,177.924,52.965z M177.924,80.439
				c-5.56,0-9.485-4.143-9.485-9.812c0-5.56,4.034-9.703,9.485-9.703c5.56,0,9.485,4.143,9.485,9.703
				C187.409,76.296,183.593,80.439,177.924,80.439z"/>
			<path class="st0" d="M154.157,79.894h-2.18V57.326c0-2.289-1.526-4.143-4.143-4.143h-19.297c-2.29,0-3.816,1.526-3.816,4.143
				v5.451c0,3.925-0.109,6.977-0.763,10.248c-0.654,3.162-1.526,5.233-2.726,6.868h-0.981c-2.726,0-4.034,1.744-4.034,4.143v7.741
				c0,2.617,1.853,4.143,4.143,4.143c2.398,0,4.143-1.526,4.143-4.143V88.07h25.402v3.707c0,2.617,1.853,4.143,4.143,4.143
				c2.398,0,4.143-1.526,4.143-4.143v-7.741C158.3,81.638,156.992,79.894,154.157,79.894z M143.582,79.894h-13.737
				c0.872-1.853,1.526-3.489,2.071-5.887c0.545-2.617,0.763-5.233,0.872-8.613l0.109-4.034h10.684V79.894z"/>
			<path class="st0" d="M97.575,52.965c-10.139,0-17.88,7.632-17.88,17.771c0,10.248,7.741,17.771,17.88,17.771
				c10.03,0,17.88-7.741,17.88-17.88C115.454,60.379,107.714,52.965,97.575,52.965z M97.575,80.439c-5.56,0-9.485-4.143-9.485-9.812
				c0-5.56,4.034-9.703,9.485-9.703c5.56,0,9.485,4.143,9.485,9.703C107.06,76.296,103.353,80.439,97.575,80.439z"/>
			<path class="st0" d="M73.59,79.894h-2.18V57.326c0-2.289-1.526-4.143-4.143-4.143H47.97c-2.289,0-3.816,1.526-3.816,4.143v5.451
				c0,3.925,0,6.977-0.763,10.248c-0.654,3.162-1.526,5.233-2.726,6.868h-0.872c-2.726,0-4.034,1.744-4.034,4.143v7.741
				c0,2.617,1.853,4.143,4.143,4.143c2.399,0,4.143-1.526,4.143-4.143V88.07h25.402v3.707c0,2.617,1.853,4.143,4.143,4.143
				c2.398,0,4.143-1.526,4.143-4.143v-7.741C77.733,81.638,76.425,79.894,73.59,79.894z M63.015,79.894H49.278
				c0.872-1.853,1.526-3.489,2.071-5.887c0.545-2.617,0.763-5.233,0.872-8.613l0.109-4.034h10.684L63.015,79.894z"/>
		</g>
	</g>
</g>
</svg>
